# xmcd
#
# Track frame offsets:
#	150
#	27139
#	40400
#	53312
#	68086
#	84785
#	105624
#	122093
#	137547
#	148329
#	174168
#	194947
#	211693
#	237345
#	250651
#	270210
#	289976
#	306778
#	321299
#
# Disc length: 4403
#
# Revision: 2
# Processed by: cddbd v1.5.1PL0 Copyright (c) Steve Scherf et al.
# Submitted via: CDex 1.51
# Normalized: r1:DSETVAR1,TDELIM( - )
#
DISCID=08113113
DTITLE=Various Artist - Happy Valentin 2002
DYEAR=2002
DGENRE=Jazz
TTITLE0=Ella Fitzgerald and Luis Armstrong - Cheek to cheek
TTITLE1=Sil Austen - Harlem Nocturne
TTITLE2=Blossom Dearie - Lover man
TTITLE3=Ella Fitzgerald - Blue moon
TTITLE4=Nina Simone - My baby just cares for me
TTITLE5=Lou Rawls - Oh, what a beautiful mornin'
TTITLE6=Harry Connick Jr. - I'll dream of you again
TTITLE7=Peggy Lee - Fever
TTITLE8=Louis Armstrong - What a wonderfull world
TTITLE9=Billy Holiday - I get a kick out of you
TTITLE10=Miriam Makeba and Dizzy Gillespie - Don't break my heart
TTITLE11=Laura Fygi - Dream a little dream
TTITLE12=Al Jarreau - Your Song
TTITLE13=Ella Fitzgerald - Misty
TTITLE14=Natalie Cole - The very thought of you
TTITLE15=Sara Vaugham - Something
TTITLE16=Lou Rawls and Dianne Reeves - At last
TTITLE17=Oscar Brown Jr. - Beautiful girl
TTITLE18=Diana Ross - Love is here to stay
EXTD=YEAR: 2002
EXTT0=
EXTT1=
EXTT2=
EXTT3=
EXTT4=
EXTT5=
EXTT6=
EXTT7=
EXTT8=
EXTT9=
EXTT10=
EXTT11=
EXTT12=
EXTT13=
EXTT14=
EXTT15=
EXTT16=
EXTT17=
EXTT18=
PLAYORDER=
